<svg xmlns="http://www.w3.org/2000/svg" version="1.1" xmlns:xlink="http://www.w3.org/1999/xlink" xmlns:svgjs="http://svgjs.com/svgjs" width="800px" height="800px"><svg width="800px" height="800px" viewBox="0 0 24 24" fill="none" xmlns="http://www.w3.org/2000/svg">

<g id="SvgjsG1002" stroke-width="0"></g>

<g id="SvgjsG1001" stroke-linecap="round" stroke-linejoin="round"></g>

<g id="SvgjsG1000"> <path opacity="0.4" d="M16.19 2H7.81C4.17 2 2 4.17 2 7.81V16.18C2 19.83 4.17 22 7.81 22H16.18C19.82 22 21.99 19.83 21.99 16.19V7.81C22 4.17 19.83 2 16.19 2Z" fill="#3584e4"></path> <path d="M15.4991 10.1301C16.5374 10.1301 17.3791 9.28841 17.3791 8.25012C17.3791 7.21182 16.5374 6.37012 15.4991 6.37012C14.4608 6.37012 13.6191 7.21182 13.6191 8.25012C13.6191 9.28841 14.4608 10.1301 15.4991 10.1301Z" fill="#3584e4"></path> <path d="M8.49914 10.1301C9.53744 10.1301 10.3791 9.28841 10.3791 8.25012C10.3791 7.21182 9.53744 6.37012 8.49914 6.37012C7.46085 6.37012 6.61914 7.21182 6.61914 8.25012C6.61914 9.28841 7.46085 10.1301 8.49914 10.1301Z" fill="#3584e4"></path> <path d="M15.6009 12.9199H8.40086C7.70086 12.9199 7.13086 13.4899 7.13086 14.1999C7.13086 16.8899 9.32086 19.0799 12.0109 19.0799C14.7009 19.0799 16.8909 16.8899 16.8909 14.1999C16.8809 13.4999 16.3009 12.9199 15.6009 12.9199Z" fill="#3584e4"></path> </g>

</svg><style>@media (prefers-color-scheme: light) { :root { filter: none; } }
@media (prefers-color-scheme: dark) { :root { filter: contrast(0.8333333333333334) brightness(1.7); } }
</style></svg>